<?xml version="1.0" standalone="no"?>
<!DOCTYPE svg PUBLIC "-//W3C//DTD SVG 20010904//EN"
 "http://www.w3.org/TR/2001/REC-SVG-20010904/DTD/svg10.dtd">
<svg version="1.0" xmlns="http://www.w3.org/2000/svg"
 width="732.000000pt" height="732.000000pt" viewBox="0 0 732.000000 732.000000"
 preserveAspectRatio="xMidYMid meet">

<g transform="translate(0.000000,732.000000) scale(0.100000,-0.100000)"
fill="#000000" stroke="none">
<path d="M1030 7130 c-93 -12 -211 -49 -306 -95 -281 -136 -484 -386 -567
-698 l-22 -82 0 -2585 c0 -2475 1 -2588 18 -2663 91 -389 382 -686 770 -790
l82 -22 2675 0 c2522 0 2679 1 2744 18 393 101 700 413 783 797 17 81 18 203
18 2655 0 2392 -1 2575 -17 2647 -85 381 -382 690 -766 796 l-97 27 -2630 1
c-1447 1 -2655 -2 -2685 -6z m5413 -113 c166 -52 284 -122 409 -245 170 -165
260 -345 288 -572 8 -70 10 -749 8 -2600 -4 -2398 -4 -2508 -22 -2575 -60
-227 -189 -423 -365 -557 -76 -58 -239 -139 -326 -162 -33 -9 -105 -20 -160
-25 -56 -5 -1231 -8 -2665 -7 l-2565 1 -100 28 c-173 47 -305 120 -428 236
-168 159 -271 362 -297 586 -13 118 -13 4979 0 5083 45 347 289 653 620 781
164 64 -42 60 2865 58 l2650 -2 88 -28z"/>
<path d="M3645 5449 c-601 -37 -1176 -368 -1514 -871 -81 -122 -221 -399 -221
-439 0 -5 251 -9 558 -9 306 0 567 -3 580 -6 12 -4 22 -13 22 -22 0 -17 -143
-403 -414 -1116 -42 -109 -76 -205 -76 -212 0 -11 37 -14 190 -14 l191 0 19
46 c19 44 310 819 435 1157 l58 157 527 0 526 0 30 23 c39 30 254 255 254 267
0 5 -496 9 -1245 8 -685 0 -1248 2 -1251 5 -14 14 123 184 242 299 232 225
538 385 873 455 111 23 150 27 326 27 168 1 219 -3 316 -21 183 -36 397 -117
552 -209 226 -136 475 -383 600 -596 15 -27 32 -48 37 -48 10 0 169 97 187
114 9 8 2 28 -33 85 -186 308 -458 560 -784 725 -300 153 -628 217 -985 195z"/>
<path d="M6635 5296 c-27 -13 -99 -67 -160 -120 -108 -94 -111 -96 -150 -90
-61 10 -80 19 -80 40 0 24 -35 30 -70 11 -24 -12 -42 -11 -159 14 l-131 28
-34 -27 c-18 -15 -34 -31 -34 -37 0 -5 74 -48 165 -95 91 -47 173 -91 182 -99
16 -13 8 -24 -89 -117 l-106 -103 -72 35 c-39 19 -77 34 -83 34 -13 0 -64 -38
-64 -48 0 -4 34 -28 75 -52 85 -50 100 -75 64 -102 -79 -57 -474 -323 -639
-429 -594 -384 -1084 -604 -1555 -699 l-90 -18 93 -1 c221 -2 561 78 897 211
251 100 626 309 852 476 135 101 346 303 423 407 30 40 51 59 62 57 10 -2 39
14 65 36 124 101 259 202 267 199 6 -2 13 -17 18 -33 10 -35 52 -227 68 -306
6 -32 15 -58 19 -58 4 0 24 15 44 34 l37 34 0 132 c0 117 2 135 20 157 24 31
26 56 5 73 -12 10 -15 29 -13 74 l3 60 90 73 c103 82 159 141 187 196 39 77
-9 100 -107 53z"/>
<path d="M5537 3962 c-94 -63 -99 -68 -94 -97 3 -16 15 -84 27 -150 40 -224
27 -517 -35 -752 -179 -680 -707 -1177 -1380 -1299 -151 -27 -414 -25 -564 5
-335 66 -598 198 -861 431 -126 113 -282 314 -364 470 l-37 70 -123 0 c-67 0
-125 -3 -129 -6 -9 -10 104 -229 168 -323 231 -343 569 -614 955 -765 371
-144 774 -167 1164 -66 453 118 880 431 1145 840 265 408 378 929 305 1400
-16 102 -61 291 -72 301 -4 4 -51 -23 -105 -59z"/>
<path d="M590 3912 c0 -4 60 -67 133 -140 l132 -132 834 2 834 3 48 125 c26
69 48 131 49 138 0 9 -209 12 -1015 12 -558 0 -1015 -3 -1015 -8z"/>
<path d="M979 3503 c12 -14 71 -77 131 -140 l110 -113 577 2 577 3 52 138 52
137 -760 0 -759 0 20 -27z"/>
<path d="M3925 3360 c-199 -22 -371 -102 -449 -209 -42 -58 -86 -145 -121
-241 -48 -133 -22 -242 73 -304 76 -51 124 -56 537 -56 442 0 431 2 423 -81
-6 -61 -48 -126 -93 -145 -28 -11 -130 -14 -570 -14 -432 0 -542 -3 -569 -14
-29 -12 -39 -29 -89 -139 -31 -70 -57 -129 -57 -132 0 -3 294 -5 653 -5 555 0
662 2 712 15 162 42 271 127 339 264 146 290 123 452 -72 517 -51 17 -98 19
-454 24 -360 5 -399 7 -415 22 -41 42 -1 148 71 189 l41 24 530 0 c422 0 535
3 555 14 28 15 280 261 280 273 0 10 -1232 8 -1325 -2z"/>
<path d="M1330 3140 c0 -9 229 -254 255 -272 5 -4 147 -8 315 -8 168 0 310 4
316 8 14 9 114 264 107 275 -7 11 -993 9 -993 -3z"/>
</g>
</svg>
